<svg height="18.4" viewBox="0 0 18.4 18.4" width="18.4" xmlns="http://www.w3.org/2000/svg">
    <g id="vuesax_linear_edit-2" transform="translate(0.5 0.5)">
        <g id="vuesax_linear_edit-2-2">
            <g id="edit-2">
                <path d="M.764,7.344A2.211,2.211,0,0,0,.278,8.38L.01,10.729a1.107,1.107,0,0,0,1.356,1.283l2.334-.4a2.082,2.082,0,0,0,1.008-.544l5.952-6.3c1.029-1.087,1.493-2.327-.109-3.842s-2.806-.971-3.835.116Z"
                    fill="none"
                    id="Vector" stroke="#3fc1c9" stroke-dasharray="0 0"
                    stroke-linecap="round" stroke-linejoin="round" stroke-miterlimit="10"
                    stroke-width="1.5" transform="translate(2.898 1.567)" />
                <path d="M0,0A4.441,4.441,0,0,0,3.951,3.734" fill="none"
                    id="Vector-2" stroke="#3fc1c9" stroke-dasharray="0 0"
                    stroke-linecap="round" stroke-linejoin="round" stroke-miterlimit="10"
                    stroke-width="1.5" transform="translate(8.62 3.661)" />
                <path d="M0,0H13.05" fill="none"
                    id="Vector-3" stroke="#3fc1c9" stroke-dasharray="0 0"
                    stroke-linecap="round" stroke-linejoin="round" stroke-miterlimit="10"
                    stroke-width="1.5" transform="translate(2.175 15.95)" />
                <path d="M17.4,0V17.4H0V0Z" fill="none" id="Vector-4"
                    opacity="0" stroke="#3fc1c9" stroke-width="1" />
            </g>
        </g>
    </g>
</svg>
