<svg data-name="vuesax/bold/trash" height="24" id="vuesax_bold_trash"
    viewBox="0 0 24 24" width="24" xmlns="http://www.w3.org/2000/svg">
    <g id="vuesax_bold_trash-2">
        <g id="trash">
            <path d="M13.984,3.61V3.6l-.22-1.3c-.15-.92-.37-2.3-2.71-2.3H8.434C6.1,0,5.884,1.32,5.724,2.29l-.21,1.28c-.93.06-1.86.12-2.79.21l-2.04.2a.748.748,0,1,0,.14,1.49l2.04-.2a79.729,79.729,0,0,1,15.82.21h.08a.757.757,0,0,0,.75-.68.766.766,0,0,0-.69-.82C17.214,3.82,15.6,3.7,13.984,3.61Z"
                fill="#fc5185"
                id="Vector" transform="translate(2.246 1.25)" />
            <path d="M10.782,15.01H4.362c-3.493,0-3.63-1.9-3.74-3.42L0,1.33A1.29,1.29,0,0,1,.342.39,1.256,1.256,0,0,1,1.252,0h12.64a1.272,1.272,0,0,1,.91.39,1.3,1.3,0,0,1,.339.95l-.619,10.25C14.412,13.114,14.275,15.01,10.782,15.01ZM5.9,8.5a.751.751,0,0,0-.751.751A.76.76,0,0,0,5.9,10h3.33a.75.75,0,0,0,0-1.5Zm-.83-4a.76.76,0,0,0-.751.75A.751.751,0,0,0,5.072,6h5a.75.75,0,0,0,0-1.5Z" fill="#fc5185"
                id="Vector-2" transform="translate(4.428 7.75)" />
            <path d="M24,0V24H0V0Z" fill="#fc5185"
                id="Vector-3" opacity="0" transform="translate(24 24) rotate(180)" />
        </g>
    </g>
</svg>